<svg width="886" height="320" viewBox="0 0 886 320" fill="none" xmlns="http://www.w3.org/2000/svg">
<path fill-rule="evenodd" clip-rule="evenodd" d="M427.815 148.084L432.615 148.738L437.536 149.268L442.588 149.681L447.78 149.988L453.119 150.197L458.611 150.32L464.262 150.369L470.077 150.356L476.057 150.297L482.203 150.204L488.515 150.093L494.992 149.979L501.628 149.878L508.418 149.804L515.357 149.775L522.434 149.804L529.641 149.907L536.967 150.097L544.4 150.387L551.928 150.788L559.541 151.309L567.227 151.959L574.976 152.742L582.779 153.664L590.625 154.728L598.506 155.938L606.412 157.294L614.334 158.8L622.263 160.455L630.188 162.262L638.102 164.219L645.997 166.326L653.863 168.582L661.694 170.985L669.482 173.534L677.221 176.225L684.905 179.057L692.527 182.025L700.083 185.127L707.567 188.359L714.976 191.718L722.304 195.199L729.548 198.799L736.704 202.515L743.769 206.343L750.739 210.278L757.61 214.317L764.378 218.457L771.041 222.694L777.594 227.024L784.033 231.445L790.353 235.952L796.549 240.544L802.617 245.215L808.549 249.964L814.339 254.787L819.98 259.681L825.465 264.643L830.785 269.669L835.931 274.755L840.893 279.899L845.661 285.096L850.223 290.342L854.569 295.633L858.685 300.964L862.56 306.33L866.181 311.726L869.534 317.146L872.605 322.584L875.382 328.033L877.851 333.487L879.998 338.937L881.812 344.377L883.279 349.798L884.387 355.193L885.127 360.551L885.488 365.864L885.462 371.124L885.042 376.32L884.222 381.443L882.998 386.485L881.369 391.435L879.334 396.285L876.897 401.025L874.06 405.649L870.833 410.147L867.223 414.512L863.243 418.738L858.907 422.82L854.231 426.751L849.234 430.528L843.936 434.149L838.36 437.611L832.531 440.914L826.472 444.057L820.21 447.041L813.77 449.87L807.179 452.544L800.462 455.069L793.648 457.449L786.767 459.69L779.847 461.801L772.921 463.789L766.02 465.665L759.175 467.439L752.413 469.122L745.762 470.725L739.245 472.26L732.885 473.739L726.704 475.173L720.719 476.574L714.948 477.956L709.408 479.328L704.112 480.705L699.072 482.097L694.3 483.517L689.805 484.976L685.594 486.486L681.673 488.056L678.045 489.698L674.713 491.421L671.676 493.235L668.933 495.147L666.48 497.165L664.312 499.296L662.42 501.545L660.796 503.918L659.429 506.416L658.307 509.044L657.415 511.802L656.738 514.69L656.26 517.708L655.962 520.854L655.825 524.123L655.831 527.513L655.96 531.018L656.189 534.631L656.499 538.346L656.869 542.155L657.277 546.048L657.704 550.017L658.128 554.051L658.531 558.141L658.894 562.276L659.199 566.446L659.428 570.639L659.568 574.845L659.603 579.053L659.52 583.254L659.309 587.437L658.958 591.594L658.46 595.716L657.809 599.795L656.997 603.823L656.023 607.795L654.882 611.706L653.575 615.551L652.102 619.326L650.463 623.03L648.663 626.661L646.704 630.219L644.591 633.704L642.33 637.117L639.926 640.462L637.385 643.74L634.715 646.956L631.921 650.114L629.011 653.218L625.991 656.274L622.866 659.286L619.643 662.259L616.327 665.198L612.922 668.108L609.432 670.991L605.859 673.852L602.204 676.693L598.469 679.514L594.652 682.317L590.753 685.099L586.771 687.86L582.705 690.599L578.552 693.313L574.31 696L569.976 698.656L565.548 701.275L561.022 703.852L556.396 706.384L551.667 708.866L546.835 711.292L541.897 713.659L536.851 715.961L531.697 718.193L526.433 720.349L521.058 722.424L515.572 724.412L509.973 726.306L504.261 728.099L498.437 729.784L492.5 731.355L486.452 732.803L480.294 734.121L474.026 735.302L467.652 736.337L461.174 737.22L454.595 737.942L447.92 738.497L441.151 738.878L434.295 739.077L427.358 739.089L420.344 738.909L413.262 738.532L406.118 737.953L398.92 737.169L391.677 736.178L384.396 734.979L377.088 733.57L369.761 731.953L362.424 730.128L355.087 728.099L347.76 725.869L340.451 723.443L333.17 720.826L325.925 718.026L318.725 715.051L311.578 711.908L304.49 708.608L297.47 705.161L290.522 701.577L283.651 697.869L276.863 694.048L270.16 690.127L263.544 686.118L257.018 682.033L250.582 677.886L244.235 673.687L237.976 669.45L231.804 665.185L225.716 660.904L219.708 656.615L213.775 652.329L207.915 648.054L202.122 643.796L196.391 639.562L190.717 635.356L185.095 631.183L179.52 627.044L173.989 622.941L168.497 618.874L163.04 614.842L157.618 610.843L152.226 606.874L146.865 602.933L141.534 599.014L136.232 595.114L130.961 591.228L125.721 587.353L120.513 583.485L115.338 579.621L110.196 575.759L105.085 571.898L100.003 568.04L94.9463 564.186L89.9084 560.339L84.8818 556.502L79.8575 552.681L74.8268 548.878L69.7808 545.096L64.7108 541.336L59.6082 537.6L54.4647 533.887L49.2723 530.199L44.0236 526.534L38.7112 522.89L33.3288 519.266L27.8702 515.659L22.3302 512.065L16.7043 508.482L10.9888 504.905L5.18128 501.33L-0.720122 497.752L-6.71592 494.166L-12.8056 490.566L-18.9873 486.948L-25.258 483.304L-31.6135 479.631L-38.0481 475.921L-44.555 472.169L-51.1257 468.37L-57.7508 464.517L-64.4192 460.607L-71.1189 456.633L-77.8362 452.592L-84.5565 448.479L-91.2639 444.292L-97.9414 440.026L-104.571 435.68L-111.134 431.251L-117.611 426.739L-123.981 422.143L-130.223 417.464L-136.315 412.704L-142.237 407.862L-147.964 402.944L-153.476 397.952L-158.751 392.89L-163.765 387.765L-168.498 382.581L-172.929 377.345L-177.037 372.066L-180.802 366.75L-184.207 361.407L-187.234 356.046L-189.866 350.676L-192.089 345.309L-193.891 339.954L-195.259 334.622L-196.185 329.324L-196.661 324.072L-196.682 318.876L-196.245 313.748L-195.35 308.699L-193.997 303.739L-192.192 298.879L-189.941 294.127L-187.253 289.494L-184.14 284.987L-180.615 280.614L-176.696 276.383L-172.399 272.298L-167.747 268.364L-162.761 264.587L-157.466 260.967L-151.887 257.507L-146.05 254.208L-139.982 251.068L-133.711 248.087L-127.263 245.262L-120.665 242.591L-113.944 240.069L-107.131 237.691L-100.258 235.449L-93.3607 233.335L-86.4768 231.337L-79.6448 229.443L-72.9045 227.64L-66.2963 225.911L-59.8606 224.24L-53.6374 222.609L-47.6648 220.999L-41.979 219.39L-36.6135 217.763L-31.5984 216.097L-26.9605 214.373L-22.7227 212.57L-18.9039 210.672L-15.5185 208.659L-12.5769 206.514L-10.085 204.223L-8.04429 201.771L-6.45224 199.146L-5.30205 196.337L-4.58295 193.335L-4.28051 190.132L-4.37667 186.725L-4.85017 183.11L-5.6767 179.285L-6.82928 175.253L-8.27855 171.015L-9.99313 166.578L-11.9398 161.948L-14.084 157.133L-16.39 152.146L-18.8216 146.997L-21.3417 141.701L-23.9136 136.273L-26.5003 130.73L-29.0656 125.089L-31.574 119.369L-33.9909 113.59L-36.283 107.772L-38.4184 101.935L-40.3669 96.101L-42.1004 90.291L-43.5925 84.5264L-44.8191 78.8283L-45.7583 73.2176L-46.3909 67.7145L-46.6997 62.339L-46.6704 57.1099L-46.291 52.0452L-45.5524 47.1621L-44.4478 42.4764L-42.9731 38.0025L-41.1266 33.7538L-38.9092 29.742L-36.324 25.9771L-33.3766 22.4678L-30.0747 19.2208L-26.4278 16.2413L-22.4478 13.5328L-18.1479 11.0967L-13.5432 8.93311L-8.65011 7.03997L-3.48631 5.41376L1.92944 4.04919L7.57751 2.93946L13.4376 2.07608L19.4889 1.44935L25.7105 1.04797L32.081 0.859641L38.5796 0.870929L45.1856 1.06743L51.8786 1.434L58.6394 1.95493L65.4491 2.61402L72.2902 3.39491L79.1463 4.28108L86.0022 5.25655L92.8451 6.30655L99.6651 7.41908L106.455 8.5851L113.21 9.79829L119.929 11.0554L126.61 12.3556L133.255 13.7005L139.866 15.093L146.444 16.5373L152.993 18.0384L159.515 19.6021L166.011 21.2341L172.484 22.9404L178.934 24.7265L185.362 26.5979L191.768 28.5591L198.15 30.6141L204.508 32.766L210.839 35.0172L217.139 37.3692L223.407 39.8221L229.638 42.3754L235.827 45.0277L241.972 47.7762L248.065 50.6176L254.104 53.5475L260.084 56.5606L265.998 59.6509L271.844 62.8117L277.617 66.0353L283.312 69.3139L288.926 72.6388L294.456 76.0009L299.9 79.3907L305.254 82.7985L310.518 86.2142L315.691 89.6275L320.773 93.0281L325.764 96.4055L330.666 99.7495L335.48 103.05L340.21 106.296L344.859 109.478L349.431 112.586L353.932 115.612L358.369 118.545L362.746 121.379L367.073 124.103L371.357 126.712L375.607 129.198L379.832 131.556L384.043 133.779L388.249 135.864L392.463 137.806L396.694 139.603L400.956 141.253L405.259 142.755L409.615 144.109L414.038 145.316L418.537 146.378L423.126 147.3L427.815 148.084Z" fill="url(#paint0_linear_217_4174)"/>
<defs>
<linearGradient id="paint0_linear_217_4174" x1="96.2891" y1="345.314" x2="554.151" y2="101.54" gradientUnits="userSpaceOnUse">
<stop stop-color="#559EE1"/>
<stop offset="0.763542" stop-color="#D1E5F7"/>
<stop offset="1" stop-color="white"/>
</linearGradient>
</defs>
</svg>
