<svg width="23" height="25" viewBox="0 0 23 25" fill="none" xmlns="http://www.w3.org/2000/svg">
<path d="M5.33771 10.2227V7.94892C5.33771 4.18587 6.34826 1.12769 11.401 1.12769C16.4538 1.12769 17.4643 4.18587 17.4643 7.94892V10.2227" stroke="#8B9AAC" stroke-width="1.51583" stroke-linecap="round" stroke-linejoin="round"/>
<path d="M11.401 19.8861C12.7963 19.8861 13.9274 18.6136 13.9274 17.0439C13.9274 15.4742 12.7963 14.2017 11.401 14.2017C10.0057 14.2017 8.8746 15.4742 8.8746 17.0439C8.8746 18.6136 10.0057 19.8861 11.401 19.8861Z" stroke="#8B9AAC" stroke-width="1.51583" stroke-linecap="round" stroke-linejoin="round"/>
<path d="M16.4538 23.8651H6.34826C2.30605 23.8651 1.2955 22.7283 1.2955 18.1808V15.907C1.2955 11.3595 2.30605 10.2227 6.34826 10.2227H16.4538C20.496 10.2227 21.5066 11.3595 21.5066 15.907V18.1808C21.5066 22.7283 20.496 23.8651 16.4538 23.8651Z" stroke="#8B9AAC" stroke-width="1.51583" stroke-linecap="round" stroke-linejoin="round"/>
</svg>
