<svg width="475" height="496" viewBox="0 0 475 496" fill="none" xmlns="http://www.w3.org/2000/svg">
<path d="M193.638 217.206L164.964 219.761L153.465 213.272C153.465 213.272 116.588 192.728 107.006 186.238C104.102 184.249 101.387 179.923 99.0499 174.841C97.0885 170.484 95.401 166.008 93.9975 161.44C93.3441 159.393 92.7634 157.433 92.2698 155.633C91.1663 151.757 90.484 148.853 90.2953 148.069C90.3036 148.006 90.3036 147.943 90.2953 147.88H90.3678L99.4565 144.976L107.05 142.566C107.05 142.566 107.398 144.367 107.993 147.111L108.516 149.535C108.676 150.232 108.835 150.987 109.01 151.742C110.926 160.192 113.873 171.72 116.008 173.607C119.448 176.641 162.714 206.129 164.253 206.898C165.792 207.668 179.57 206.898 179.57 206.898L193.638 217.206Z" fill="#E8AEA5"/>
<path d="M90.0629 107.17C103.275 106.967 111.681 147.909 111.681 147.909L94.2588 156.62C89.3097 148.052 86.7291 138.321 86.7817 128.425C87.1883 112.716 90.0629 107.17 90.0629 107.17Z" fill="#407BFF"/>
<path opacity="0.5" d="M90.0629 107.17C103.275 106.967 111.681 147.909 111.681 147.909L94.2588 156.62C89.3097 148.052 86.7291 138.321 86.7817 128.425C87.1883 112.716 90.0629 107.17 90.0629 107.17Z" fill="white"/>
<path d="M113.612 148.708L108.908 151.757L102.767 155.735L93.9394 161.44L92.3569 162.471L90.4404 156.649L92.2117 155.691L93.3732 155.052L101.446 150.653L107.892 147.125L111.115 145.368L111.681 145.064L113.612 148.708Z" fill="#407BFF"/>
<path d="M88.0885 482.736L100.24 484.028L102.52 457.822L90.3679 456.53L88.0885 482.736Z" fill="#E8AEA5"/>
<path d="M27.4735 481.85H39.2335L40.2063 454.584H28.4317L27.4735 481.85Z" fill="#E8AEA5"/>
<path d="M40.8741 480.485H26.5734C26.3395 480.489 26.1137 480.572 25.9321 480.719C25.7505 480.866 25.6236 481.07 25.5716 481.298L23.2486 491.781C23.1997 492.004 23.1955 492.235 23.2363 492.459C23.2771 492.684 23.362 492.899 23.4863 493.09C23.6105 493.282 23.7715 493.447 23.96 493.576C24.1485 493.706 24.3607 493.796 24.5843 493.842C24.7093 493.864 24.8369 493.864 24.9618 493.842C29.5932 493.842 32.9615 493.494 38.769 493.494C42.355 493.494 53.1568 493.857 58.0931 493.857C63.0294 493.857 63.6828 488.979 61.6502 488.529C52.5761 486.554 45.6798 483.81 42.7761 481.269C42.259 480.785 41.5826 480.506 40.8741 480.485Z" fill="#263238"/>
<path d="M41.6872 482.126C41.6302 482.112 41.5788 482.08 41.54 482.036C41.5011 481.992 41.4765 481.937 41.4694 481.879C41.4627 481.828 41.4715 481.775 41.4948 481.729C41.5181 481.682 41.5547 481.643 41.6001 481.618C42.0211 481.342 45.825 479.004 47.1316 479.687C47.2801 479.751 47.4054 479.86 47.491 479.997C47.5765 480.134 47.6183 480.295 47.6108 480.456C47.6398 480.727 47.6021 481.001 47.5009 481.254C47.3996 481.508 47.238 481.732 47.03 481.908C46.3677 482.366 45.5678 482.581 44.7651 482.518C43.7276 482.504 42.695 482.373 41.6872 482.126ZM42.4857 481.734C43.8607 482.201 45.3623 482.123 46.6816 481.516C46.8193 481.391 46.9253 481.235 46.9909 481.061C47.0565 480.887 47.0799 480.699 47.0591 480.514C47.0591 480.297 46.9574 480.195 46.8703 480.195C46.7646 480.135 46.6427 480.11 46.5219 480.122C45.0852 480.394 43.7146 480.942 42.4857 481.734Z" fill="#407BFF"/>
<path d="M41.5565 482.213C41.5146 482.184 41.4807 482.145 41.4578 482.099C41.435 482.053 41.424 482.003 41.4259 481.952C41.4259 481.792 41.7307 478.409 43.0955 477.306C43.253 477.163 43.4399 477.056 43.6431 476.994C43.8463 476.931 44.0608 476.914 44.2715 476.943C44.4822 476.942 44.6868 477.013 44.8508 477.146C45.0148 477.278 45.1282 477.463 45.1716 477.669C45.4039 478.917 43.0519 481.502 41.8469 482.17H41.7162C41.6683 482.199 41.6129 482.214 41.5565 482.213ZM43.4439 477.625C42.5996 478.68 42.0935 479.966 41.9921 481.313C43.2116 480.398 44.707 478.409 44.5619 477.669C44.5619 477.596 44.5619 477.393 44.1553 477.393H44.0247C43.8298 477.408 43.6433 477.478 43.4875 477.596L43.4439 477.625Z" fill="#407BFF"/>
<path d="M101.518 480.122H87.2173C86.9847 480.123 86.7592 480.202 86.5773 480.347C86.3954 480.492 86.2679 480.694 86.2155 480.921L83.8926 491.403C83.7977 491.854 83.885 492.323 84.1352 492.71C84.3855 493.096 84.7785 493.368 85.2283 493.465H85.6203C90.2372 493.378 93.6055 493.102 99.4274 493.102C102.999 493.102 113.801 493.48 118.737 493.48C123.673 493.48 124.327 488.587 122.309 488.137C113.235 486.162 106.338 483.433 103.435 480.877C102.909 480.4 102.228 480.132 101.518 480.122Z" fill="#263238"/>
<path d="M102.331 481.748C102.274 481.734 102.223 481.703 102.184 481.659C102.145 481.615 102.12 481.56 102.113 481.502C102.106 481.448 102.116 481.394 102.142 481.347C102.168 481.299 102.209 481.262 102.259 481.24C102.68 480.964 106.483 478.627 107.776 479.309C107.922 479.377 108.045 479.486 108.13 479.623C108.215 479.759 108.258 479.918 108.255 480.079C108.285 480.35 108.248 480.624 108.147 480.878C108.045 481.131 107.883 481.355 107.674 481.531C107.026 482.002 106.239 482.242 105.438 482.213C104.388 482.177 103.346 482.021 102.331 481.748ZM103.13 481.357C104.505 481.815 106.001 481.742 107.325 481.153C107.464 481.029 107.571 480.873 107.637 480.698C107.702 480.524 107.725 480.336 107.703 480.151C107.703 479.919 107.601 479.818 107.529 479.818C107.418 479.757 107.291 479.732 107.166 479.745C105.731 480.023 104.362 480.57 103.13 481.357Z" fill="#407BFF"/>
<path d="M102.259 481.807C102.216 481.781 102.18 481.744 102.155 481.701C102.13 481.658 102.116 481.61 102.113 481.56C102.113 481.386 102.418 478.003 103.783 476.899C103.94 476.756 104.127 476.65 104.331 476.587C104.534 476.524 104.748 476.507 104.959 476.536C105.172 476.536 105.378 476.61 105.542 476.745C105.707 476.88 105.819 477.068 105.859 477.277C106.106 478.511 103.754 481.11 102.534 481.763H102.404C102.36 481.791 102.31 481.806 102.259 481.807ZM104.146 477.219C103.295 478.27 102.788 479.557 102.694 480.906C103.899 479.992 105.395 478.003 105.249 477.277C105.249 477.19 105.249 476.986 104.843 476.986H104.712C104.503 477.001 104.305 477.082 104.146 477.219Z" fill="#407BFF"/>
<path opacity="0.2" d="M90.3678 456.53L102.52 457.822L101.329 471.339L89.1773 470.047L90.3678 456.53Z" fill="#212121"/>
<path opacity="0.2" d="M28.4318 454.599H40.2063L39.6982 468.667H27.9236L28.4318 454.599Z" fill="#212121"/>
<path d="M33.2809 215.391H95.7107C101.649 247.84 120.247 362.638 106.904 464.922L85.7509 462.294C85.7509 462.294 87.7109 326.502 69.0401 276.311C66.8913 303.17 64.3361 331.757 62.1293 346.973C56.7429 384.402 45.1135 466.243 45.1135 466.243H23.5826C23.5826 466.243 27.9381 387.93 30.0143 351.125C32.2356 311.17 33.2083 223.594 33.2809 215.391Z" fill="#407BFF"/>
<path opacity="0.2" d="M69.1417 276.311C72.2194 285.112 74.5553 294.154 76.1252 303.345C77.8674 279.433 70.884 254.083 70.884 254.083L69.1417 276.311Z" fill="#212121"/>
<path d="M109.387 469.843L83.2102 465.952L84.0088 458.708L111.231 462.279L109.387 469.843Z" fill="#407BFF"/>
<path opacity="0.6" d="M109.387 469.843L83.2102 465.952L84.0088 458.708L111.231 462.279L109.387 469.843Z" fill="white"/>
<path d="M47.6979 466.402H22.3049V458.809L48.6561 458.316L47.6979 466.402Z" fill="#407BFF"/>
<path opacity="0.6" d="M47.6979 466.402H22.3049V458.809L48.6561 458.316L47.6979 466.402Z" fill="white"/>
<path d="M33.1648 226.251L33.1067 217.206L96.785 213.272L97.2351 222.041L33.1648 226.251Z" fill="#263238"/>
<path d="M49.2804 214.912H46.4057V228.168H49.2804V214.912Z" fill="#407BFF"/>
<path d="M93.2862 210.51L90.4192 210.719L91.3831 223.939L94.2501 223.73L93.2862 210.51Z" fill="#407BFF"/>
<path d="M96.727 213.272L33.1067 217.976C33.1067 212.401 32.9615 206.187 32.5405 199.624C31.7565 187.501 30.2611 174.231 28.5915 161.789C25.0489 135.351 20.7079 112.658 20.7079 112.658C50.3257 105.181 90.063 107.127 90.063 107.127C100.386 145.804 96.727 213.272 96.727 213.272Z" fill="#407BFF"/>
<path opacity="0.6" d="M96.727 213.272L33.1067 217.976C33.1067 212.401 32.9615 206.187 32.5405 199.624C31.7565 187.501 30.2611 174.231 28.5915 161.789C25.0489 135.351 20.7079 112.658 20.7079 112.658C50.3257 105.181 90.063 107.127 90.063 107.127C100.386 145.804 96.727 213.272 96.727 213.272Z" fill="white"/>
<path d="M43.3133 108.695C49.1207 113.907 63.102 111.99 63.102 111.99C63.102 111.99 71.8132 109.58 70.0274 106.836C64.8588 105.994 62.3616 103.584 61.3163 100.492C60.7425 98.5829 60.5646 96.5771 60.7936 94.5971C60.8735 93.4909 61.0189 92.3904 61.2291 91.3014L43.8069 78.438C46.1444 86.9313 48.9319 102.539 43.3133 108.695Z" fill="#E8AEA5"/>
<path opacity="0.2" d="M47.8866 86.6119C48.569 97.0362 57.1349 99.9109 61.3308 100.492C60.757 98.5829 60.5791 96.5771 60.8081 94.5971L47.8866 86.6119Z" fill="#212121"/>
<path d="M77.8529 53.6694C82.0778 57.6765 80.321 69.8866 71.7115 76.1295C63.102 82.3725 63.102 52.1739 63.102 52.1739C63.102 52.1739 75.1669 51.1141 77.8529 53.6694Z" fill="#263238"/>
<path d="M46.7106 89.022C48.5158 91.6943 51.1485 93.7 54.2042 94.7308C57.26 95.7617 60.5697 95.7606 63.6247 94.7278C67.5977 93.4693 70.9414 90.7434 72.9747 87.1056C73.2619 86.6012 73.5236 86.0827 73.7587 85.5521C77.9981 75.694 79.3047 58.2717 68.8659 51.7965C65.2818 49.5503 60.9529 48.8177 56.8293 49.7595C52.7056 50.7012 49.124 53.2404 46.8703 56.8199C45.5373 58.9445 44.7171 61.3503 44.4748 63.8468C43.1971 75.4036 41.8905 82.1692 46.7106 89.022Z" fill="#E8AEA5"/>
<path d="M61.3743 70.0172C61.1565 70.9319 61.5776 71.7885 62.2019 71.8901C62.8262 71.9917 63.436 71.3094 63.6537 70.4383C63.8715 69.5671 63.436 68.667 62.8407 68.5654C62.2454 68.4637 61.5485 69.0735 61.3743 70.0172Z" fill="#263238"/>
<path d="M71.9583 71.8175C71.7406 72.7322 72.1761 73.6033 72.7714 73.7049C73.3666 73.8066 74.02 73.1242 74.2232 72.2531C74.4265 71.382 74.0054 70.4673 73.3957 70.3657C72.7859 70.264 72.118 70.9319 71.9583 71.8175Z" fill="#263238"/>
<path d="M68.5175 71.7014C69.1464 74.7345 70.192 77.666 71.6244 80.4125C70.9028 80.7647 70.1125 80.9537 69.3095 80.9663C68.5066 80.9788 67.7108 80.8145 66.9785 80.4851L68.5175 71.7014Z" fill="#EF9A8D"/>
<path d="M58.6739 66.0246C58.7729 66.0536 58.8774 66.0581 58.9785 66.0379C59.0797 66.0177 59.1744 65.9733 59.2546 65.9085C59.7505 65.4139 60.3559 65.043 61.0219 64.8261C61.6878 64.6092 62.3955 64.5522 63.0875 64.6599C63.1581 64.6772 63.2314 64.6804 63.3032 64.6693C63.3749 64.6583 63.4439 64.6331 63.5059 64.5953C63.568 64.5576 63.6219 64.5079 63.6647 64.4492C63.7076 64.3905 63.7384 64.324 63.7554 64.2534C63.7865 64.1111 63.7616 63.9624 63.6859 63.838C63.6102 63.7136 63.4895 63.6232 63.3489 63.5855C62.4811 63.4253 61.5877 63.4734 60.7422 63.7258C59.8967 63.9782 59.1231 64.4277 58.4852 65.0374C58.384 65.1428 58.3275 65.2833 58.3275 65.4294C58.3275 65.5755 58.384 65.7159 58.4852 65.8214C58.5341 65.9008 58.5982 65.9699 58.6739 66.0246Z" fill="#263238"/>
<path d="M64.6265 85.131C63.2529 85.1088 61.9053 84.7537 60.6991 84.0963C59.4929 83.4388 58.4641 82.4986 57.7011 81.3562C57.6803 81.3231 57.6664 81.2861 57.6602 81.2474C57.6541 81.2088 57.6558 81.1693 57.6653 81.1313C57.6748 81.0933 57.6919 81.0577 57.7155 81.0265C57.7391 80.9952 57.7688 80.9691 57.8028 80.9497C57.8668 80.9109 57.9432 80.8983 58.0162 80.9146C58.0893 80.9308 58.1532 80.9746 58.1948 81.0368C58.9256 82.0765 59.8887 82.9314 61.0077 83.5338C62.1267 84.1361 63.3707 84.4693 64.641 84.5067C64.7156 84.5067 64.7873 84.5352 64.8413 84.5866C64.8954 84.6379 64.9277 84.7081 64.9314 84.7826C64.9279 84.8546 64.8977 84.9228 64.8467 84.9737C64.7957 85.0247 64.7275 85.0549 64.6555 85.0584L64.6265 85.131Z" fill="#263238"/>
<path d="M77.1269 68.9429C77.2236 69.0001 77.334 69.0302 77.4463 69.03C77.5854 68.9862 77.7029 68.8917 77.7755 68.7653C77.8482 68.6389 77.8706 68.4898 77.8384 68.3476C77.6131 67.4908 77.1839 66.7013 76.5872 66.0464C75.9905 65.3916 75.2442 64.891 74.412 64.5873C74.2734 64.5464 74.1242 64.5614 73.9966 64.6293C73.869 64.6972 73.7731 64.8124 73.7296 64.9503C73.6882 65.0908 73.7028 65.2419 73.7705 65.3719C73.8382 65.5019 73.9537 65.6005 74.0926 65.6472C74.7426 65.9072 75.3228 66.3157 75.7866 66.8401C76.2505 67.3644 76.5852 67.9901 76.764 68.667C76.8013 68.7362 76.853 68.7966 76.9156 68.8442C76.9782 68.8917 77.0503 68.9254 77.1269 68.9429Z" fill="#263238"/>
<path d="M55.3637 50.9253V56.0939C54.4508 56.4011 53.687 57.0406 53.2242 57.8854C52.7615 58.7301 52.6338 59.7181 52.8665 60.6528C53.9844 65.1535 50.7468 71.5126 47.1317 73.7195C47.1317 73.7195 47.2478 71.8466 45.6798 72.0934C44.1118 72.3402 43.3133 82.0821 45.8105 87.062C45.8105 87.062 41.6872 82.3289 40.3225 71.8466C39.0448 62.1482 39.7127 54.2791 42.0792 50.8818L55.3637 50.9253Z" fill="#263238"/>
<path d="M37.8543 72.3838C38.6839 75.201 40.5941 77.5757 43.1681 78.9897C46.5945 80.8336 49.1643 77.9589 48.9755 74.2857C48.7432 71.0045 46.7106 66.0101 42.9068 65.7197C39.1029 65.4294 36.8671 68.9138 37.8543 72.3838Z" fill="#E8AEA5"/>
<path d="M39.7417 59.7236C39.7417 59.7236 36.1556 51.1141 45.5491 44.7985C54.9426 38.483 77.2286 45.8439 78.7966 50.9689C80.3646 56.094 63.5085 65.4003 39.7417 59.7236Z" fill="#263238"/>
<path d="M45.5056 103.337L59.7192 111.119L61.6647 100.492L71.6244 106.967V120.542L61.0839 114.255L53.6795 125.347L39.0593 109.29L45.5056 103.337Z" fill="#407BFF"/>
<path d="M77.789 213.641L66.5978 214.261C65.6691 214.312 64.9579 215.107 65.0093 216.036L65.4284 223.603C65.4799 224.531 66.2744 225.243 67.2031 225.191L78.3943 224.571C79.323 224.52 80.0342 223.725 79.9828 222.797L79.5637 215.229C79.5122 214.301 78.7177 213.59 77.789 213.641Z" fill="white"/>
<path opacity="0.5" d="M45.5056 103.337L59.7192 111.119L61.6647 100.492L71.6244 106.967V120.542L61.0839 114.255L53.6795 125.347L39.0593 109.29L45.5056 103.337Z" fill="white"/>
<path d="M33.1067 147.909C33.1067 147.909 36.1121 167.48 39.0593 171.299C42.0066 175.117 102.941 208.437 102.941 208.437L124.007 206.913L133.691 218.019C133.691 218.019 105.627 222.375 102.563 221.533C100.694 221.015 98.8801 220.315 97.148 219.442C97.148 219.442 33.2664 194.281 27.8946 188.532C22.5227 182.783 16.4104 153.267 16.4104 153.267L33.1067 147.909Z" fill="#E8AEA5"/>
<path d="M20.7079 112.702C31.8581 110.379 37.622 156.649 37.622 156.649L14.8134 162.457C14.8134 162.457 6.98788 115.576 20.7079 112.702Z" fill="#407BFF"/>
<path opacity="0.5" d="M20.7079 112.702C31.8581 110.379 37.622 156.649 37.622 156.649L14.8134 162.457C14.8134 162.457 6.98788 115.576 20.7079 112.702Z" fill="white"/>
<path d="M13.4777 161.353L39.0593 155.227V159.626L14.6246 166.711L13.4777 161.353Z" fill="#407BFF"/>
<path d="M101.083 450.272V251.252C101.084 242.639 98.4441 234.232 93.5184 227.166L86.564 217.206H210.117L217.071 227.166C221.997 234.232 224.637 242.639 224.635 251.252V448.385" stroke="#263238" stroke-width="8.71112" stroke-linecap="round" stroke-linejoin="round"/>
<path d="M363.65 493.901C370.715 493.901 376.441 488.174 376.441 481.11C376.441 474.046 370.715 468.319 363.65 468.319C356.586 468.319 350.86 474.046 350.86 481.11C350.86 488.174 356.586 493.901 363.65 493.901Z" fill="#263238"/>
<path opacity="0.4" d="M370.053 481.11C370.056 479.843 369.683 478.603 368.981 477.549C368.279 476.494 367.28 475.671 366.111 475.184C364.941 474.697 363.653 474.568 362.41 474.814C361.167 475.059 360.025 475.668 359.128 476.563C358.231 477.458 357.62 478.598 357.372 479.841C357.124 481.083 357.249 482.371 357.734 483.542C358.218 484.713 359.038 485.714 360.092 486.418C361.145 487.122 362.383 487.498 363.65 487.498C364.49 487.5 365.323 487.336 366.099 487.016C366.876 486.696 367.582 486.225 368.177 485.632C368.772 485.039 369.243 484.334 369.565 483.558C369.887 482.782 370.053 481.95 370.053 481.11Z" fill="white"/>
<path d="M362.111 483.955C361.114 483.954 360.141 483.648 359.323 483.076C358.505 482.505 357.882 481.697 357.538 480.761L350.003 460.116H366.975V479.092C366.975 480.382 366.463 481.619 365.551 482.531C364.638 483.443 363.401 483.955 362.111 483.955Z" fill="#263238"/>
<path opacity="0.2" d="M362.111 483.955C361.114 483.954 360.141 483.648 359.323 483.076C358.505 482.505 357.882 481.697 357.538 480.761L350.003 460.116H366.975V479.092C366.975 480.382 366.463 481.619 365.551 482.531C364.638 483.443 363.401 483.955 362.111 483.955Z" fill="white"/>
<path d="M221.369 493.901C228.433 493.901 234.159 488.174 234.159 481.11C234.159 474.046 228.433 468.319 221.369 468.319C214.304 468.319 208.578 474.046 208.578 481.11C208.578 488.174 214.304 493.901 221.369 493.901Z" fill="#263238"/>
<path opacity="0.4" d="M227.771 481.11C227.774 479.843 227.401 478.603 226.699 477.549C225.998 476.494 224.999 475.671 223.829 475.184C222.659 474.697 221.371 474.568 220.128 474.814C218.886 475.059 217.743 475.668 216.846 476.563C215.95 477.458 215.338 478.598 215.09 479.841C214.842 481.083 214.968 482.371 215.452 483.542C215.936 484.713 216.757 485.714 217.81 486.418C218.863 487.122 220.102 487.498 221.369 487.498C222.209 487.5 223.041 487.336 223.818 487.016C224.594 486.696 225.3 486.225 225.895 485.632C226.49 485.039 226.962 484.334 227.284 483.558C227.606 482.782 227.771 481.95 227.771 481.11Z" fill="white"/>
<path d="M219.83 483.955C218.832 483.954 217.859 483.648 217.041 483.076C216.224 482.505 215.601 481.697 215.256 480.761L207.721 460.116H224.693V479.092C224.693 480.382 224.181 481.619 223.269 482.531C222.357 483.443 221.12 483.955 219.83 483.955Z" fill="#263238"/>
<path opacity="0.2" d="M219.83 483.955C218.832 483.954 217.859 483.648 217.041 483.076C216.224 482.505 215.601 481.697 215.256 480.761L207.721 460.116H224.693V479.092C224.693 480.382 224.181 481.619 223.269 482.531C222.357 483.443 221.12 483.955 219.83 483.955Z" fill="white"/>
<path d="M385.646 445.234V457.314C385.646 458.396 385.216 459.434 384.451 460.199C383.686 460.964 382.648 461.394 381.566 461.394H95.6526C94.5706 461.394 93.5329 460.964 92.7678 460.199C92.0027 459.434 91.5729 458.396 91.5729 457.314V445.234H385.646Z" fill="#263238"/>
<path opacity="0.4" d="M385.646 445.234V457.314C385.646 458.396 385.216 459.434 384.451 460.199C383.686 460.964 382.648 461.394 381.566 461.394H95.6526C94.5706 461.394 93.5329 460.964 92.7678 460.199C92.0027 459.434 91.5729 458.396 91.5729 457.314V445.234H385.646Z" fill="white"/>
<path opacity="0.2" d="M284.016 445.234V457.314C284.016 458.396 283.586 459.434 282.821 460.199C282.056 460.964 281.018 461.394 279.936 461.394H95.6526C94.5706 461.394 93.5329 460.964 92.7678 460.199C92.0027 459.434 91.5729 458.396 91.5729 457.314V445.234H284.016Z" fill="white"/>
<path d="M260.569 493.901C267.633 493.901 273.36 488.174 273.36 481.11C273.36 474.046 267.633 468.319 260.569 468.319C253.505 468.319 247.778 474.046 247.778 481.11C247.778 488.174 253.505 493.901 260.569 493.901Z" fill="#263238"/>
<path opacity="0.6" d="M266.971 481.11C266.974 479.843 266.601 478.603 265.899 477.549C265.198 476.494 264.199 475.671 263.029 475.184C261.859 474.697 260.571 474.568 259.328 474.814C258.086 475.059 256.943 475.668 256.046 476.563C255.15 477.458 254.538 478.598 254.29 479.841C254.042 481.083 254.168 482.371 254.652 483.542C255.136 484.713 255.957 485.714 257.01 486.418C258.063 487.122 259.302 487.498 260.569 487.498C261.409 487.5 262.241 487.336 263.018 487.016C263.794 486.696 264.5 486.225 265.095 485.632C265.69 485.039 266.162 484.334 266.484 483.558C266.806 482.782 266.971 481.95 266.971 481.11Z" fill="white"/>
<path d="M259.03 483.955C258.032 483.954 257.059 483.648 256.241 483.076C255.424 482.505 254.801 481.697 254.456 480.761L246.921 460.116H263.893V479.092C263.893 480.382 263.381 481.619 262.469 482.531C261.557 483.443 260.32 483.955 259.03 483.955Z" fill="#263238"/>
<path opacity="0.4" d="M259.03 483.955C258.032 483.954 257.059 483.648 256.241 483.076C255.424 482.505 254.801 481.697 254.456 480.761L246.921 460.116H263.893V479.092C263.893 480.382 263.381 481.619 262.469 482.531C261.557 483.443 260.32 483.955 259.03 483.955Z" fill="white"/>
<path d="M118.287 493.901C125.351 493.901 131.078 488.174 131.078 481.11C131.078 474.046 125.351 468.319 118.287 468.319C111.223 468.319 105.496 474.046 105.496 481.11C105.496 488.174 111.223 493.901 118.287 493.901Z" fill="#263238"/>
<path opacity="0.6" d="M124.69 481.11C124.693 479.843 124.319 478.603 123.618 477.549C122.916 476.494 121.917 475.671 120.747 475.184C119.578 474.697 118.29 474.568 117.047 474.814C115.804 475.059 114.662 475.668 113.765 476.563C112.868 477.458 112.257 478.598 112.008 479.841C111.76 481.083 111.886 482.371 112.37 483.542C112.855 484.713 113.675 485.714 114.728 486.418C115.782 487.122 117.02 487.498 118.287 487.498C119.127 487.5 119.959 487.336 120.736 487.016C121.513 486.696 122.219 486.225 122.814 485.632C123.408 485.039 123.88 484.334 124.202 483.558C124.524 482.782 124.69 481.95 124.69 481.11Z" fill="white"/>
<path d="M116.748 483.955C115.751 483.954 114.777 483.648 113.96 483.076C113.142 482.505 112.519 481.697 112.175 480.761L104.64 460.116H121.612V479.092C121.612 480.382 121.099 481.619 120.187 482.531C119.275 483.443 118.038 483.955 116.748 483.955Z" fill="#263238"/>
<path opacity="0.4" d="M116.748 483.955C115.751 483.954 114.777 483.648 113.96 483.076C113.142 482.505 112.519 481.697 112.175 480.761L104.64 460.116H121.612V479.092C121.612 480.382 121.099 481.619 120.187 482.531C119.275 483.443 118.038 483.955 116.748 483.955Z" fill="white"/>
<path d="M262.369 351.517H126.984V445.234H262.369V351.517Z" fill="#407BFF"/>
<path opacity="0.4" d="M262.369 351.517H126.984V445.234H262.369V351.517Z" fill="white"/>
<path opacity="0.2" d="M189.805 351.517H126.984V445.234H189.805V351.517Z" fill="white"/>
<path opacity="0.2" d="M183.867 425.417H176.013C175.275 425.417 174.677 426.015 174.677 426.752V437.481C174.677 438.219 175.275 438.817 176.013 438.817H183.867C184.605 438.817 185.203 438.219 185.203 437.481V426.752C185.203 426.015 184.605 425.417 183.867 425.417Z" fill="#212121"/>
<path opacity="0.2" d="M169.697 425.417H161.843C161.105 425.417 160.507 426.015 160.507 426.752V437.481C160.507 438.219 161.105 438.817 161.843 438.817H169.697C170.435 438.817 171.033 438.219 171.033 437.481V426.752C171.033 426.015 170.435 425.417 169.697 425.417Z" fill="#212121"/>
<path opacity="0.4" d="M233.259 351.517H225.608V361.288H233.259V351.517Z" fill="#212121"/>
<path opacity="0.2" d="M254.181 391.53H201.478V403.784H254.181V391.53Z" fill="#212121"/>
<path opacity="0.2" d="M149.095 356.395H131.078V374.413H149.095V356.395Z" fill="#212121"/>
<path d="M276.191 257.8H140.805V351.517H276.191V257.8Z" fill="#407BFF"/>
<path opacity="0.4" d="M276.191 257.8H140.805V351.517H276.191V257.8Z" fill="#212121"/>
<path opacity="0.2" d="M203.627 257.8H140.805V351.517H203.627V257.8Z" fill="white"/>
<path opacity="0.2" d="M197.703 331.699H189.849C189.111 331.699 188.513 332.297 188.513 333.035V343.764C188.513 344.502 189.111 345.1 189.849 345.1H197.703C198.441 345.1 199.039 344.502 199.039 343.764V333.035C199.039 332.297 198.441 331.699 197.703 331.699Z" fill="#212121"/>
<path opacity="0.2" d="M183.533 331.699H175.679C174.941 331.699 174.343 332.297 174.343 333.035V343.764C174.343 344.502 174.941 345.1 175.679 345.1H183.533C184.271 345.1 184.869 344.502 184.869 343.764V333.035C184.869 332.297 184.271 331.699 183.533 331.699Z" fill="#212121"/>
<path opacity="0.4" d="M247.081 257.8H239.43V267.571H247.081V257.8Z" fill="#212121"/>
<path opacity="0.2" d="M268.002 297.813H215.3V310.067H268.002V297.813Z" fill="#212121"/>
<path opacity="0.2" d="M162.932 262.678H144.914V280.696H162.932V262.678Z" fill="#212121"/>
<path d="M359.062 257.8H223.677V351.517H359.062V257.8Z" fill="#407BFF"/>
<path opacity="0.4" d="M359.062 257.8H223.677V351.517H359.062V257.8Z" fill="white"/>
<path opacity="0.2" d="M286.499 257.8H223.677V351.517H286.499V257.8Z" fill="white"/>
<path opacity="0.2" d="M280.575 331.699H272.721C271.983 331.699 271.385 332.297 271.385 333.035V343.764C271.385 344.502 271.983 345.1 272.721 345.1H280.575C281.313 345.1 281.911 344.502 281.911 343.764V333.035C281.911 332.297 281.313 331.699 280.575 331.699Z" fill="#212121"/>
<path opacity="0.2" d="M266.405 331.699H258.551C257.813 331.699 257.215 332.297 257.215 333.035V343.764C257.215 344.502 257.813 345.1 258.551 345.1H266.405C267.143 345.1 267.741 344.502 267.741 343.764V333.035C267.741 332.297 267.143 331.699 266.405 331.699Z" fill="#212121"/>
<path opacity="0.4" d="M329.953 257.8H322.301V267.571H329.953V257.8Z" fill="#212121"/>
<path opacity="0.2" d="M350.874 297.813H298.172V310.067H350.874V297.813Z" fill="#212121"/>
<path opacity="0.2" d="M245.803 262.678H227.786V280.696H245.803V262.678Z" fill="#212121"/>
<path d="M312.24 164.083H176.855V257.8H312.24V164.083Z" fill="#407BFF"/>
<path opacity="0.2" d="M239.677 164.083H176.855V257.8H239.677V164.083Z" fill="white"/>
<path opacity="0.2" d="M233.738 237.982H225.884C225.146 237.982 224.548 238.58 224.548 239.318V250.047C224.548 250.785 225.146 251.383 225.884 251.383H233.738C234.476 251.383 235.074 250.785 235.074 250.047V239.318C235.074 238.58 234.476 237.982 233.738 237.982Z" fill="#212121"/>
<path opacity="0.2" d="M219.583 237.982H211.728C210.991 237.982 210.393 238.58 210.393 239.318V250.047C210.393 250.785 210.991 251.383 211.728 251.383H219.583C220.321 251.383 220.919 250.785 220.919 250.047V239.318C220.919 238.58 220.321 237.982 219.583 237.982Z" fill="#212121"/>
<path opacity="0.4" d="M283.131 164.083H275.479V173.854H283.131V164.083Z" fill="#212121"/>
<path opacity="0.2" d="M304.052 204.096H251.349V216.35H304.052V204.096Z" fill="#212121"/>
<path opacity="0.2" d="M198.967 168.961H180.949V186.979H198.967V168.961Z" fill="#212121"/>
<path d="M348.522 351.517H213.137V445.234H348.522V351.517Z" fill="#263238"/>
<path opacity="0.2" d="M348.522 351.517H213.137V445.234H348.522V351.517Z" fill="white"/>
<path opacity="0.2" d="M275.958 351.517H213.137V445.234H275.958V351.517Z" fill="white"/>
<path opacity="0.2" d="M270.02 425.417H262.166C261.428 425.417 260.83 426.015 260.83 426.752V437.481C260.83 438.219 261.428 438.817 262.166 438.817H270.02C270.758 438.817 271.356 438.219 271.356 437.481V426.752C271.356 426.015 270.758 425.417 270.02 425.417Z" fill="#212121"/>
<path opacity="0.2" d="M255.85 425.417H247.996C247.258 425.417 246.66 426.015 246.66 426.752V437.481C246.66 438.219 247.258 438.817 247.996 438.817H255.85C256.588 438.817 257.186 438.219 257.186 437.481V426.752C257.186 426.015 256.588 425.417 255.85 425.417Z" fill="#212121"/>
<path opacity="0.4" d="M319.412 351.517H311.761V361.288H319.412V351.517Z" fill="#212121"/>
<path opacity="0.2" d="M340.334 391.53H287.631V403.784H340.334V391.53Z" fill="#212121"/>
<path opacity="0.2" d="M235.248 356.395H217.231V374.413H235.248V356.395Z" fill="#212121"/>
</svg>
